<svg
  xmlns="http://www.w3.org/2000/svg"
  viewBox="0 0 1024 1024"
  width="1em"
  height="1em"
  fill="currentColor">
  <title id="title">Abdomen</title>
  <path d="M99.84 907.776c-18.432 0-33.792-14.848-34.304-33.792-3.584-162.816 56.32-251.904 104.448-323.072 14.336-21.504 28.16-41.472 38.4-61.44 47.104-92.16 60.928-225.792-14.336-316.928-12.288-14.848-9.728-36.352 4.608-48.64 14.848-12.288 36.352-9.728 48.64 4.608 83.456 101.376 92.16 255.488 22.528 392.192-11.776 23.552-26.624 45.568-42.496 68.608-45.056 66.56-95.744 142.336-92.672 283.136 0.512 18.944-14.848 34.816-33.792 35.328h-1.024z"></path>
  <path d="M507.392 816.128c-269.312 0-377.856-133.632-382.464-139.264-11.776-14.848-9.216-36.352 5.632-48.128 14.848-11.776 36.352-9.216 48.128 5.632 4.096 5.12 95.232 113.152 328.704 113.152 236.544 0 325.12-111.616 326.144-112.64 11.776-14.848 33.28-17.92 48.128-6.144 14.848 11.776 17.92 33.28 6.144 48.128-4.608 5.632-110.592 139.264-380.416 139.264z"></path>
  <path d="M908.288 907.776h-1.024c-18.944-0.512-33.792-16.384-33.792-35.328 3.072-141.312-47.616-216.576-92.672-283.136-15.36-23.04-30.208-45.056-42.496-68.608-69.632-136.704-60.928-290.304 23.04-392.192 12.288-14.848 33.792-16.896 48.64-4.608 14.848 12.288 16.896 33.792 4.608 48.64-75.264 91.136-61.44 225.28-14.336 316.928 10.24 19.968 23.552 39.936 38.4 61.44 48.128 71.168 108.032 160.256 104.448 323.072-1.024 18.944-16.384 33.792-34.816 33.792zM457.728 623.104c0 28.16 22.528 50.688 50.688 50.688s50.688-22.528 50.688-50.688-22.528-50.688-50.688-50.688-50.688 22.528-50.688 50.688z"></path>
</svg>
