<svg
  xmlns="http://www.w3.org/2000/svg"
  viewBox="0 0 1024 1024"
  width="1em"
  height="1em"
  fill="currentColor">
  <title id="title">Bone</title>
  <path d="M541.696 1003.008c-7.68-2.56-14.336-7.68-18.432-14.336-8.704-13.824-16.896-27.648-25.088-41.472-30.72-51.2-62.976-103.936-100.864-147.456-5.12 4.096-10.24 8.192-15.872 12.8-40.448 32.768-73.216 58.88-99.328 68.608-54.272 20.48-107.52 2.048-132.096-45.056-3.072-6.144-4.608-13.312-3.584-20.48 12.8-99.328 74.752-271.36 77.824-278.528l7.168-17.408c3.584-9.728 8.192-19.968 12.288-30.208-29.184-30.72-82.944-99.328-89.6-185.856C148.48 238.08 171.008 176.64 220.16 119.808 288.768 40.448 399.36 16.896 483.328 62.976c47.104 26.112 89.088 78.336 92.16 157.184 132.608-100.352 233.984-73.216 275.456-54.272C926.208 199.68 969.728 276.48 962.56 360.96c-10.24 112.64-105.472 203.264-256 244.736-4.608 7.68-15.36 28.672-32.768 79.872l-30.72 97.28c-9.216 31.232-17.408 60.928-25.088 88.064-12.288 44.032-23.04 81.92-33.28 111.616-4.608 12.288-15.36 21.504-28.672 22.528-5.12 0-9.728-0.512-14.336-2.048z m-325.632-191.488c12.8 13.312 32.768 8.192 41.472 5.12 17.408-6.656 55.296-37.376 79.872-57.344 19.456-15.872 34.816-28.672 46.08-34.816 13.312-7.68 30.72-5.632 41.472 5.12 46.592 46.08 82.432 101.888 116.736 157.696 3.072-11.776 6.656-23.552 9.728-35.328 7.68-27.648 15.872-57.344 25.6-89.088v-0.512l30.72-98.304c32.256-95.232 48.64-111.104 61.952-118.784 2.56-1.536 5.632-3.072 8.704-3.584 126.976-32.256 207.36-101.888 215.04-186.88 5.12-54.784-23.04-104.448-71.168-126.464-73.728-33.792-174.08 5.12-268.8 103.424-10.752 11.264-28.16 13.824-41.984 5.632-13.824-8.192-19.968-24.576-15.36-39.424 24.576-81.92 7.68-145.408-46.08-175.104-47.616-26.112-124.416-20.48-178.176 41.984-36.864 42.496-53.76 87.04-50.176 133.12 6.656 89.088 82.944 156.16 83.968 156.672 11.264 9.728 14.848 25.6 9.216 39.424-6.144 14.848-13.824 33.792-20.48 50.176l-6.656 16.896c0 1.024-56.32 156.672-71.68 250.368z"></path>
</svg>
